# xmcd
#
# Track frame offsets:
#	150
#	66006
#	92531
#	157346
#	209401
#
# Disc length: 3125 seconds
#
# Revision: 1
# Processed by: cddbd v1.5.2PL0 Copyright (c) Steve Scherf et al.
# Submitted via: audiograbber 1.83.01
#
DISCID=410c3305
DTITLE=Grateful Dead - 79-11-30 Stanley Theatre, Pittsburgh PA
DYEAR=1900
DGENRE=
TTITLE0=Dancing In The Streets
TTITLE1=Deal
TTITLE2=Scarlet Begonias
TTITLE3=Fire On The Mountain
TTITLE4=Passenger
EXTD=
EXTT0=
EXTT1=
EXTT2=
EXTT3=
EXTT4=
PLAYORDER=
